<svg width="32" height="32" viewBox="0 0 32 32" fill="none" xmlns="http://www.w3.org/2000/svg">
<rect width="32" height="32" rx="8" fill="url(#paint0_linear_1540_202)"/>
<g clip-path="url(#clip0_1540_202)">
<g filter="url(#filter0_d_1540_202)">
<path d="M19.6567 11.6209C19.8393 11.4366 20.0875 11.332 20.347 11.3301C20.6066 11.3282 20.8563 11.4291 21.0416 11.6107C21.227 11.7924 21.3329 12.04 21.3362 12.2995C21.3395 12.559 21.24 12.8093 21.0593 12.9956L15.8327 19.5296C15.7429 19.6263 15.6345 19.7039 15.5141 19.7577C15.3937 19.8116 15.2636 19.8407 15.1317 19.8431C14.9998 19.8456 14.8687 19.8215 14.7463 19.7722C14.6239 19.7229 14.5127 19.6495 14.4193 19.5563L10.954 16.0923C10.7699 15.908 10.6664 15.6582 10.6665 15.3977C10.6666 15.1372 10.7701 14.8874 10.9543 14.7033C11.1386 14.5191 11.3884 14.4157 11.6489 14.4158C11.9094 14.4158 12.1592 14.5194 12.3433 14.7036L15.084 17.4449L19.6307 11.6516C19.6389 11.6411 19.6478 11.631 19.6573 11.6216L19.6567 11.6209Z" fill="white"/>
</g>
</g>
<defs>
<filter id="filter0_d_1540_202" x="10.6665" y="11.3301" width="10.6697" height="10.5137" filterUnits="userSpaceOnUse" color-interpolation-filters="sRGB">
<feFlood flood-opacity="0" result="BackgroundImageFix"/>
<feColorMatrix in="SourceAlpha" type="matrix" values="0 0 0 0 0 0 0 0 0 0 0 0 0 0 0 0 0 0 127 0" result="hardAlpha"/>
<feOffset dy="2"/>
<feColorMatrix type="matrix" values="0 0 0 0 0 0 0 0 0 0 0 0 0 0 0 0 0 0 0.1 0"/>
<feBlend mode="normal" in2="BackgroundImageFix" result="effect1_dropShadow_1540_202"/>
<feBlend mode="normal" in="SourceGraphic" in2="effect1_dropShadow_1540_202" result="shape"/>
</filter>
<linearGradient id="paint0_linear_1540_202" x1="16" y1="0" x2="16" y2="32" gradientUnits="userSpaceOnUse">
<stop stop-color="#89F09C"/>
<stop offset="1" stop-color="#3CC755"/>
</linearGradient>
<clipPath id="clip0_1540_202">
<rect width="10.6667" height="10.6667" fill="white" transform="translate(10.6667 10.667)"/>
</clipPath>
</defs>
</svg>
